<svg xmlns="http://www.w3.org/2000/svg" width="64" height="64" viewBox="0 0 64 64"><defs><linearGradient id="favicon-g" x1="6" y1="4" x2="58" y2="60" gradientUnits="userSpaceOnUse"><stop offset="0" stop-color="#4338ca"/><stop offset="1" stop-color="#8b3dff"/></linearGradient><radialGradient id="favicon-h" cx="0.25" cy="0.15" r="0.9"><stop offset="0" stop-color="#ffffff" stop-opacity="0.28"/><stop offset="0.6" stop-color="#ffffff" stop-opacity="0"/></radialGradient></defs><rect width="64" height="64" rx="15" fill="url(#favicon-g)"/><rect width="64" height="64" rx="15" fill="url(#favicon-h)"/><g transform="translate(0 0) scale(1)"><rect x="12.5" y="12.5" width="9" height="9" rx="3" fill="#ffffff" fill-opacity="0.72"/><rect x="12.5" y="27.5" width="9" height="9" rx="3" fill="#ffffff" fill-opacity="0.72"/><rect x="12.5" y="42.5" width="9" height="9" rx="3" fill="#ffffff" fill-opacity="0.72"/><rect x="27.5" y="12.5" width="9" height="9" rx="3" fill="#ffffff" fill-opacity="0.72"/><rect x="25" y="25" width="14" height="14" rx="4.5" fill="#ffffff" fill-opacity="1"/><rect x="27.5" y="42.5" width="9" height="9" rx="3" fill="#ffffff" fill-opacity="0.72"/><rect x="42.5" y="12.5" width="9" height="9" rx="3" fill="#ffffff" fill-opacity="0.72"/><rect x="42.5" y="27.5" width="9" height="9" rx="3" fill="#ffffff" fill-opacity="0.72"/><rect x="42.5" y="42.5" width="9" height="9" rx="3" fill="#ffffff" fill-opacity="0.72"/></g></svg>
